<svg width="23" height="24" viewBox="0 0 23 24" fill="none" xmlns="http://www.w3.org/2000/svg">
<g clip-path="url(#clip0_21_278)">
<path d="M17.25 23.5H10.9729C9.93792 23.5 8.92209 23.0687 8.20334 22.3212L1.2075 15.0283L3.19125 13.2746C3.78542 12.7475 4.6575 12.6421 5.35709 13.0158L7.66667 14.2425V5.09042C7.66667 3.76792 8.74 2.69458 10.0625 2.69458C10.2254 2.69458 10.3883 2.71375 10.5513 2.7425C10.6375 1.49667 11.6725 0.509583 12.9375 0.509583C13.7617 0.509583 14.4804 0.921666 14.9117 1.55417C15.1896 1.43917 15.4963 1.38167 15.8125 1.38167C17.135 1.38167 18.2083 2.455 18.2083 3.7775V4.04583C18.3617 4.01708 18.5246 3.99792 18.6875 3.99792C20.01 3.99792 21.0833 5.07125 21.0833 6.39375V19.6667C21.0833 21.7846 19.3679 23.5 17.25 23.5ZM3.9675 15.1433L9.58334 20.9892C9.9475 21.3629 10.4458 21.5833 10.9633 21.5833H17.25C18.3042 21.5833 19.1667 20.7208 19.1667 19.6667V6.39375C19.1667 6.12542 18.9558 5.91458 18.6875 5.91458C18.4192 5.91458 18.2083 6.12542 18.2083 6.39375V12H16.2917V3.7775C16.2917 3.50917 16.0808 3.29833 15.8125 3.29833C15.5442 3.29833 15.3333 3.50917 15.3333 3.7775V12H13.4167V2.90542C13.4167 2.63708 13.2058 2.42625 12.9375 2.42625C12.6692 2.42625 12.4583 2.63708 12.4583 2.90542V12H10.5417V5.09042C10.5417 4.82208 10.3308 4.61125 10.0625 4.61125C9.79417 4.61125 9.58334 4.83167 9.58334 5.09042V17.4242L4.45625 14.7121L3.9675 15.1433Z" fill="#285D9A"/>
</g>
<defs>
<clipPath id="clip0_21_278">
<rect width="23" height="23" fill="white" transform="translate(0 0.5)"/>
</clipPath>
</defs>
</svg>
